<svg width="70" height="70" viewBox="0 0 70 70" fill="none" xmlns="http://www.w3.org/2000/svg">
<rect width="70" height="70" rx="10" fill="#007716"/>
<path d="M19.228 63.14C18.6773 63.14 18.1733 63.042 17.716 62.846C17.268 62.6407 16.876 62.3653 16.54 62.02C16.2133 61.6653 15.9567 61.2593 15.77 60.802C15.5927 60.3447 15.504 59.8593 15.504 59.346C15.504 58.6553 15.6627 58.0253 15.98 57.456C16.2973 56.8867 16.736 56.4293 17.296 56.084C17.8653 55.7387 18.514 55.566 19.242 55.566C19.9793 55.566 20.6187 55.7433 21.16 56.098C21.7107 56.4433 22.1353 56.9007 22.434 57.47C22.742 58.03 22.896 58.6367 22.896 59.29C22.896 59.3833 22.8913 59.4767 22.882 59.57C22.882 59.654 22.8773 59.7193 22.868 59.766H16.806C16.8433 60.242 16.974 60.6667 17.198 61.04C17.4313 61.404 17.73 61.6933 18.094 61.908C18.458 62.1133 18.85 62.216 19.27 62.216C19.718 62.216 20.138 62.104 20.53 61.88C20.9313 61.656 21.2067 61.362 21.356 60.998L22.42 61.292C22.2613 61.6467 22.0233 61.964 21.706 62.244C21.398 62.524 21.0293 62.7433 20.6 62.902C20.18 63.0607 19.7227 63.14 19.228 63.14ZM16.764 58.912H21.748C21.7107 58.436 21.5753 58.016 21.342 57.652C21.1087 57.288 20.81 57.0033 20.446 56.798C20.082 56.5927 19.6807 56.49 19.242 56.49C18.8127 56.49 18.416 56.5927 18.052 56.798C17.688 57.0033 17.3893 57.288 17.156 57.652C16.932 58.016 16.8013 58.436 16.764 58.912ZM24.1675 59.738V58.618H28.2975V59.738H24.1675ZM33.0974 63.084C32.6027 63.084 32.1454 62.986 31.7254 62.79C31.3147 62.5847 30.9601 62.3093 30.6614 61.964C30.3627 61.6093 30.1294 61.208 29.9614 60.76C29.8027 60.312 29.7234 59.8453 29.7234 59.36C29.7234 58.8467 29.8027 58.3613 29.9614 57.904C30.1294 57.4467 30.3627 57.0453 30.6614 56.7C30.9694 56.3453 31.3287 56.07 31.7394 55.874C32.1501 55.6687 32.6074 55.566 33.1114 55.566C33.7181 55.566 34.2454 55.7153 34.6934 56.014C35.1507 56.3127 35.5334 56.6907 35.8414 57.148V55.692H36.9334V62.916C36.9334 63.6067 36.7654 64.19 36.4294 64.666C36.1027 65.142 35.6547 65.5013 35.0854 65.744C34.5254 65.996 33.9001 66.122 33.2094 66.122C32.3881 66.122 31.7161 65.9773 31.1934 65.688C30.6707 65.3987 30.2367 65.0067 29.8914 64.512L30.6054 63.882C30.8947 64.3113 31.2681 64.6333 31.7254 64.848C32.1921 65.0627 32.6867 65.17 33.2094 65.17C33.6574 65.17 34.0681 65.086 34.4414 64.918C34.8241 64.7593 35.1274 64.512 35.3514 64.176C35.5847 63.84 35.7014 63.42 35.7014 62.916V61.628C35.4307 62.076 35.0574 62.4307 34.5814 62.692C34.1147 62.9533 33.6201 63.084 33.0974 63.084ZM33.4754 62.076C33.7367 62.076 33.9887 62.0293 34.2314 61.936C34.4741 61.8427 34.6981 61.7213 34.9034 61.572C35.1087 61.4133 35.2814 61.236 35.4214 61.04C35.5614 60.844 35.6547 60.6433 35.7014 60.438V58.338C35.5707 58.002 35.3841 57.708 35.1414 57.456C34.8987 57.1947 34.6234 56.994 34.3154 56.854C34.0074 56.7047 33.6901 56.63 33.3634 56.63C32.9901 56.63 32.6541 56.7093 32.3554 56.868C32.0661 57.0267 31.8187 57.2413 31.6134 57.512C31.4081 57.7733 31.2494 58.0673 31.1374 58.394C31.0254 58.7207 30.9694 59.052 30.9694 59.388C30.9694 59.752 31.0347 60.0973 31.1654 60.424C31.2961 60.7413 31.4734 61.026 31.6974 61.278C31.9214 61.53 32.1874 61.726 32.4954 61.866C32.8034 62.006 33.1301 62.076 33.4754 62.076ZM42.1137 63.14C41.5631 63.14 41.0637 63.042 40.6157 62.846C40.1677 62.6407 39.7804 62.3653 39.4537 62.02C39.1271 61.6653 38.8751 61.2593 38.6977 60.802C38.5204 60.3447 38.4317 59.864 38.4317 59.36C38.4317 58.8467 38.5204 58.3613 38.6977 57.904C38.8751 57.4467 39.1271 57.0453 39.4537 56.7C39.7804 56.3453 40.1677 56.07 40.6157 55.874C41.0731 55.6687 41.5724 55.566 42.1137 55.566C42.6644 55.566 43.1637 55.6687 43.6117 55.874C44.0597 56.07 44.4471 56.3453 44.7737 56.7C45.1097 57.0453 45.3664 57.4467 45.5437 57.904C45.7211 58.3613 45.8097 58.8467 45.8097 59.36C45.8097 59.864 45.7211 60.3447 45.5437 60.802C45.3664 61.2593 45.1144 61.6653 44.7877 62.02C44.4611 62.3653 44.0691 62.6407 43.6117 62.846C43.1637 63.042 42.6644 63.14 42.1137 63.14ZM39.6917 59.374C39.6917 59.878 39.7991 60.3353 40.0137 60.746C40.2377 61.1567 40.5317 61.4833 40.8957 61.726C41.2597 61.9593 41.6657 62.076 42.1137 62.076C42.5617 62.076 42.9677 61.9547 43.3317 61.712C43.7051 61.4693 43.9991 61.1427 44.2137 60.732C44.4377 60.312 44.5497 59.85 44.5497 59.346C44.5497 58.842 44.4377 58.3847 44.2137 57.974C43.9991 57.5633 43.7051 57.2367 43.3317 56.994C42.9677 56.7513 42.5617 56.63 42.1137 56.63C41.6657 56.63 41.2597 56.756 40.8957 57.008C40.5317 57.2507 40.2377 57.5773 40.0137 57.988C39.7991 58.3987 39.6917 58.8607 39.6917 59.374ZM49.1565 63L46.2865 55.692H47.5745L49.8705 61.824L52.1665 55.692H53.3705L50.5005 63H49.1565Z" fill="#F7F7F7"/>
<circle cx="35" cy="28" r="25" fill="#F7F7F7"/>
<circle cx="35" cy="21" r="15" fill="#F7F7F7"/>
<path d="M35.005 18.8834C34.2315 17.9191 32.3329 17.0649 30.2235 17.0649C27.4313 17.0649 25.1813 18.5015 24.6289 19.8477V33.8799C24.6289 34.6432 25.1312 34.9342 25.6733 34.9342C26.1156 34.9342 26.3663 34.8039 26.6376 34.5931C27.2102 34.1007 28.3656 33.4377 30.2239 33.4377C32.0719 33.4377 33.3675 34.0805 33.8698 34.5327C34.1312 34.7435 34.4526 34.9347 35.005 34.9347C35.5472 34.9347 35.8588 34.7238 36.13 34.5327C36.6623 34.1109 37.9279 33.4381 39.7763 33.4381C41.6342 33.4381 42.7995 34.1109 43.3622 34.5931C43.6335 34.8039 43.8846 34.9347 44.3265 34.9347C44.869 34.9347 45.3709 34.6432 45.3709 33.8799V19.8477C44.8185 18.5015 42.5685 17.0649 39.7763 17.0649C37.6669 17.0649 35.7683 17.9191 35.005 18.8834ZM26.2459 20.3298C26.4773 19.7067 27.9336 18.5817 30.2239 18.5817C32.5039 18.5817 33.9906 19.7169 34.1912 20.3298V33.0361C33.2372 32.3229 31.7805 31.9209 30.2239 31.9209C28.6566 31.9209 27.2003 32.3229 26.2459 33.0764V20.3298ZM43.7539 20.3298V33.0764C42.7995 32.3229 41.3432 31.9209 39.7763 31.9209C38.2193 31.9209 36.7626 32.3229 35.8086 33.0361V20.3298C36.0092 19.7169 37.4959 18.5817 39.7763 18.5817C42.0662 18.5817 43.5233 19.7067 43.7539 20.3298Z" fill="#007716"/>
<path d="M29.6 36.8C29.1031 36.1391 28.1609 36.0031 27.5 36.5C26.8391 36.9969 26.7031 37.9391 27.2 38.6L28.9859 40.9813C29.2109 41.2812 29.1781 41.6984 28.9156 41.9609L28.3156 42.5609C28.0016 42.875 27.4906 42.8516 27.2094 42.5094L23 37.4562V30.5C23 29.6703 22.3297 29 21.5 29C20.6703 29 20 29.6703 20 30.5V40.7375C20 41.2484 20.1734 41.7453 20.4922 42.1437L25.3719 48.4391C25.6062 48.7438 25.7656 49.0906 25.8594 49.4562C25.9437 49.7797 26.2391 50 26.5766 50H32.75C33.1625 50 33.5 49.6625 33.5 49.25V44C33.5 42.7016 33.0781 41.4406 32.3 40.4L29.6 36.8ZM48.5 29C47.6703 29 47 29.6703 47 30.5V37.4562L42.7906 42.5094C42.5094 42.8469 41.9937 42.8703 41.6844 42.5609L41.0844 41.9609C40.8219 41.6984 40.7891 41.2812 41.0141 40.9813L42.8 38.6C43.2969 37.9391 43.1609 36.9969 42.5 36.5C41.8391 36.0031 40.8969 36.1391 40.4 36.8L37.7 40.4C36.9219 41.4406 36.5 42.7016 36.5 44V49.25C36.5 49.6625 36.8375 50 37.25 50H43.4234C43.7563 50 44.0562 49.7797 44.1406 49.4562C44.2344 49.0906 44.3938 48.7438 44.6281 48.4391L49.5078 42.1437C49.8266 41.7453 50 41.2484 50 40.7375V30.5C50 29.6703 49.3297 29 48.5 29Z" fill="#007716"/>
</svg>
